HIERARCHY
ROOT Hips
{
	OFFSET 0.000000 0.000000 0.000000
	CHANNELS 6 Xposition Yposition Zposition Xrotation Yrotation Zrotation
	JOINT LeftUpLeg_virtual
	{
		OFFSET 0.000000 0.000000 0.000000
		CHANNELS 3 Xrotation Yrotation Zrotation
		JOINT LeftUpLeg
		{
			OFFSET 10.205400 -3.823500 0.155100
			CHANNELS 3 Xrotation Yrotation Zrotation
			JOINT LeftLeg
			{
				OFFSET 0.708757 -12.982077 0.567790
				CHANNELS 3 Xrotation Yrotation Zrotation
				JOINT LeftFoot
				{
					OFFSET -0.708756 -10.717838 -2.184338
					CHANNELS 3 Xrotation Yrotation Zrotation
					JOINT LeftToeBase
					{
						OFFSET 0.108149 -7.191104 7.560241
						CHANNELS 3 Xrotation Yrotation Zrotation
						JOINT LeftToe_End
						{
							OFFSET 0.070230 0.081724 4.490308
							CHANNELS 3 Xrotation Yrotation Zrotation
							End Site
							{
								OFFSET 0 0 0
							}
						}
					}
				}
			}
		}
	}
	JOINT RightUpLeg_virtual
	{
		OFFSET 0.000000 0.000000 0.000000
		CHANNELS 3 Xrotation Yrotation Zrotation
		JOINT RightUpLeg
		{
			OFFSET -10.205400 -3.823500 0.005500
			CHANNELS 3 Xrotation Yrotation Zrotation
			JOINT RightLeg
			{
				OFFSET -0.708756 -12.982134 0.610632
				CHANNELS 3 Xrotation Yrotation Zrotation
				JOINT RightFoot
				{
					OFFSET 0.708754 -10.717769 -1.945823
					CHANNELS 3 Xrotation Yrotation Zrotation
					JOINT RightToeBase
					{
						OFFSET -0.108140 -7.191069 7.372968
						CHANNELS 3 Xrotation Yrotation Zrotation
						JOINT RightToe_End
						{
							OFFSET -0.070227 0.081735 4.479403
							CHANNELS 3 Xrotation Yrotation Zrotation
							End Site
							{
								OFFSET 0 0 0
							}
						}
					}
				}
			}
		}
	}
	JOINT Spine_virtual
	{
		OFFSET 0.000000 0.000000 0.000000
		CHANNELS 3 Xrotation Yrotation Zrotation
		JOINT Spine
		{
			OFFSET 0.000000 6.876099 0.125700
			CHANNELS 3 Xrotation Yrotation Zrotation
			JOINT Spine1
			{
				OFFSET 0.000000 5.730043 0.104720
				CHANNELS 3 Xrotation Yrotation Zrotation
				JOINT Spine1_split
				{
					OFFSET 0.000000 5.730043 0.104720
					CHANNELS 3 Xrotation Yrotation Zrotation
					JOINT Spine2
					{
						OFFSET 0.000000 5.730043 0.104720
						CHANNELS 3 Xrotation Yrotation Zrotation
						JOINT Neck_virtual
						{
							OFFSET 0.000000 0.000000 0.000000
							CHANNELS 3 Xrotation Yrotation Zrotation
							JOINT Neck
							{
								OFFSET 0.000000 10.314075 0.188496
								CHANNELS 3 Xrotation Yrotation Zrotation
								JOINT Head
								{
									OFFSET 0.000000 7.643700 -2.377400
									CHANNELS 3 Xrotation Yrotation Zrotation
									JOINT HeadTop_End
									{
										OFFSET 0.000000 43.788605 -13.619600
										CHANNELS 3 Xrotation Yrotation Zrotation
										End Site
										{
											OFFSET 0 0 0
										}
									}
								}
							}
						}
						JOINT LeftShoulder_virtual
						{
							OFFSET 0.000000 0.000000 0.000000
							CHANNELS 3 Xrotation Yrotation Zrotation
							JOINT LeftShoulder
							{
								OFFSET 2.196100 4.412489 0.087492
								CHANNELS 3 Xrotation Yrotation Zrotation
								JOINT LeftShoulder_split
								{
									OFFSET 2.196100 4.412489 0.087492
									CHANNELS 3 Xrotation Yrotation Zrotation
									JOINT LeftArm
									{
										OFFSET 8.771219 -2.981674 -0.026999
										CHANNELS 3 Xrotation Yrotation Zrotation
										JOINT LeftForeArm
										{
											OFFSET 8.512804 0.000000 -0.000000
											CHANNELS 3 Xrotation Yrotation Zrotation
											JOINT LeftHand
											{
												OFFSET 18.484802 0.000000 -0.000000
												CHANNELS 3 Xrotation Yrotation Zrotation
												End Site
												{
													OFFSET 0 0 0
												}
											}
										}
									}
								}
							}
						}
						JOINT RightShoulder_virtual
						{
							OFFSET 0.000000 0.000000 0.000000
							CHANNELS 3 Xrotation Yrotation Zrotation
							JOINT RightShoulder
							{
								OFFSET -2.196100 4.412496 0.070690
								CHANNELS 3 Xrotation Yrotation Zrotation
								JOINT RightShoulder_split
								{
									OFFSET -2.196100 4.412496 0.070690
									CHANNELS 3 Xrotation Yrotation Zrotation
									JOINT RightArm
									{
										OFFSET -8.771282 -2.981682 -0.094208
										CHANNELS 3 Xrotation Yrotation Zrotation
										JOINT RightForeArm
										{
											OFFSET -8.494598 0.000000 0.000000
											CHANNELS 3 Xrotation Yrotation Zrotation
											JOINT RightHand
											{
												OFFSET -18.483803 0.000000 0.000001
												CHANNELS 3 Xrotation Yrotation Zrotation
												End Site
												{
													OFFSET 0 0 0
												}
											}
										}
									}
								}
							}
						}
					}
				}
			}
		}
	}
}
MOTION
Frames: 8
Frame Time: 0.03333333
3.767823 31.574074 -1.336832 0.000000 0.000000 0.000000 7.692995 -32.391325 -16.844409 -34.314027 -6.822476 24.952909 75.518779 3.512493 10.143247 -38.253390 36.584201 -13.069089 -0.315154 0.000010 0.000012 0.000000 0.000000 0.000000 7.692995 -32.391325 -16.844409 -20.319922 6.924289 26.165046 -6.090369 0.601805 -2.452445 20.369149 12.591584 -1.050803 -4.013604 0.000033 -0.000002 0.000000 0.000000 0.000000 7.692995 -32.391325 -16.844409 19.734348 -6.819300 11.842633 14.882781 -0.853696 11.261192 0.000000 0.000000 0.000000 0.000000 0.000000 0.000000 15.131234 -0.648043 9.675236 -9.983876 -2.860074 5.479615 44.315227 -21.168834 34.786389 0.000000 0.000000 0.000000 15.131234 -0.648043 9.675236 1.428807 -22.224473 -11.600551 0.000000 0.000000 0.000000 -29.377118 -24.713933 -57.022855 0.000006 -6.918366 0.000003 0.000000 0.000000 0.000000 15.131234 -0.648043 9.675236 2.724572 8.294359 13.453007 0.000000 0.000000 0.000000 6.429264 49.813840 20.457873 0.000004 22.722605 -0.000002 0.000000 0.000000 0.000000 
3.731903 31.586285 -1.347059 0.000000 0.000000 0.000000 7.701372 -32.116977 -16.820044 -34.476640 -6.844169 25.068941 75.395672 3.474632 10.137381 -38.036449 36.180752 -13.155875 -0.314909 -0.000004 0.000004 0.000000 0.000000 0.000000 7.701372 -32.116977 -16.820044 -20.206741 6.964888 26.187575 -6.120353 0.641230 -2.462839 20.253403 12.277318 -1.128618 -4.016312 0.000026 0.000001 0.000000 0.000000 0.000000 7.701372 -32.116977 -16.820044 19.588916 -6.873675 11.994661 14.807939 -0.877131 11.320871 0.000000 0.000000 0.000000 0.000000 0.000000 0.000000 15.054850 -0.669729 9.734744 -9.932003 -2.864889 5.463861 44.440185 -21.362284 34.797597 0.000000 0.000000 0.000000 15.054850 -0.669729 9.734744 1.413640 -22.300078 -11.647880 0.000000 0.000000 0.000000 -29.076761 -25.170181 -57.285357 0.000009 -6.920562 -0.000004 0.000000 0.000000 0.000000 15.054850 -0.669729 9.734744 2.887490 8.303043 12.724818 0.000000 0.000000 0.000000 6.502557 49.145065 20.735546 -0.000001 23.528035 -0.000011 0.000000 0.000000 0.000000 
3.694925 31.605911 -1.356806 0.000000 0.000000 0.000000 7.695258 -31.770796 -16.780636 -34.610355 -6.919602 25.110393 75.195001 3.526644 10.131291 -37.714098 35.714035 -13.309920 -0.314649 -0.000004 -0.000000 0.000000 0.000000 0.000000 7.695258 -31.770796 -16.780636 -20.048466 7.015561 26.177834 -6.151916 0.678148 -2.477705 20.104138 11.909820 -1.203485 -4.017887 0.000028 0.000004 0.000000 0.000000 0.000000 7.695258 -31.770796 -16.780636 19.451342 -6.919352 12.152700 14.733109 -0.897701 11.382964 0.000000 0.000000 0.000000 0.000000 0.000000 0.000000 14.978625 -0.687933 9.796573 -9.882981 -2.875206 5.450324 44.559912 -21.567926 34.825434 0.000000 0.000000 0.000000 14.978625 -0.687933 9.796573 1.400840 -22.363187 -11.688515 0.000000 0.000000 0.000000 -28.676225 -25.589625 -57.546932 0.000005 -6.924404 0.000006 0.000000 0.000000 0.000000 14.978625 -0.687933 9.796573 3.056638 8.299172 11.995890 0.000000 0.000000 0.000000 6.503503 48.500845 21.102856 -0.000004 24.320697 -0.000011 0.000000 0.000000 0.000000 
3.657623 31.630718 -1.364069 0.000000 0.000000 0.000000 7.674443 -31.375287 -16.734232 -34.707965 -7.033331 25.085543 74.944865 3.594744 10.127180 -37.351036 35.259076 -13.461286 -0.314407 0.000001 -0.000007 0.000000 0.000000 0.000000 7.674443 -31.375287 -16.734232 -19.847717 7.072308 26.143463 -6.188319 0.686765 -2.496867 19.929203 11.536061 -1.282308 -4.017990 0.000021 0.000003 0.000000 0.000000 0.000000 7.674443 -31.375287 -16.734232 19.311510 -6.951222 12.320381 14.656549 -0.912789 11.448697 0.000000 0.000000 0.000000 0.000000 0.000000 0.000000 14.900867 -0.700200 9.861871 -9.834056 -2.890719 5.438129 44.669789 -21.779446 34.848827 0.000000 0.000000 0.000000 14.900867 -0.700200 9.861871 1.391921 -22.407231 -11.717319 0.000000 0.000000 0.000000 -28.180157 -25.969940 -57.807183 0.000000 -6.932563 -0.000001 0.000000 0.000000 0.000000 14.900867 -0.700200 9.861871 3.230751 8.286849 11.261489 0.000000 0.000000 0.000000 6.415857 47.880077 21.578734 0.000012 25.090773 -0.000013 0.000000 0.000000 0.000000 
3.620365 31.657742 -1.367188 0.000000 0.000000 0.000000 7.642330 -30.951562 -16.691121 -34.771550 -7.175873 25.016524 74.677436 3.640678 10.125323 -36.992895 34.853407 -13.580253 -0.314190 0.000003 -0.000010 0.000000 0.000000 0.000000 7.642330 -30.951562 -16.691121 -19.614891 7.133417 26.096940 -6.228470 0.665209 -2.518133 19.734317 11.172341 -1.363978 -4.016641 0.000029 0.000002 0.000000 0.000000 0.000000 7.642330 -30.951562 -16.691121 19.156714 -6.971878 12.504167 14.574855 -0.922773 11.520557 0.000000 0.000000 0.000000 0.000000 0.000000 0.000000 14.818066 -0.707203 9.933159 -9.782868 -2.910242 5.424806 44.774677 -21.989589 34.848575 0.000000 0.000000 0.000000 14.818066 -0.707203 9.933159 1.387855 -22.429750 -11.728973 0.000000 0.000000 0.000000 -27.596958 -26.306141 -58.066416 0.000001 -6.944699 -0.000014 0.000000 0.000000 0.000000 14.818066 -0.707203 9.933159 3.408931 8.266855 10.523055 0.000000 0.000000 0.000000 6.225403 47.281039 22.180172 -0.000003 25.830532 -0.000007 0.000000 0.000000 0.000000 
3.583270 31.684219 -1.365372 0.000000 0.000000 0.000000 7.602906 -30.512969 -16.661857 -34.809086 -7.347546 24.929309 74.420293 3.673841 10.124551 -36.657137 34.488951 -13.681555 -0.313964 0.000001 0.000002 0.000000 0.000000 0.000000 7.602906 -30.512969 -16.661857 -19.359263 7.198231 26.051694 -6.273752 0.632320 -2.538319 19.524671 10.807163 -1.442545 -4.014102 0.000026 0.000003 0.000000 0.000000 0.000000 7.602906 -30.512969 -16.661857 18.979419 -6.992104 12.709792 14.485563 -0.931513 11.600978 0.000000 0.000000 0.000000 0.000000 0.000000 0.000000 14.727554 -0.712927 10.012957 -9.733527 -2.931339 5.403342 44.895230 -22.185023 34.824713 0.000000 0.000000 0.000000 14.727554 -0.712927 10.012957 1.388706 -22.433355 -11.720249 0.000000 0.000000 0.000000 -26.936463 -26.594146 -58.321203 0.000004 -6.957212 -0.000008 0.000000 0.000000 0.000000 14.727554 -0.712927 10.012957 3.590237 8.238094 9.784849 0.000000 0.000000 0.000000 5.918722 46.701794 22.923754 0.000002 26.531460 -0.000012 0.000000 0.000000 0.000000 
3.546535 31.708290 -1.358616 0.000000 0.000000 0.000000 7.556481 -30.066083 -16.655158 -34.827046 -7.550283 24.844770 74.191099 3.719458 10.123811 -36.345516 34.140216 -13.792658 -0.313750 0.000014 -0.000004 0.000000 0.000000 0.000000 7.556481 -30.066083 -16.655158 -19.083328 7.262969 26.016319 -6.326602 0.610855 -2.553183 19.305876 10.424578 -1.512509 -4.010714 0.000023 0.000000 0.000000 0.000000 0.000000 7.556481 -30.066083 -16.655158 18.782795 -7.024480 12.937663 14.389416 -0.943982 11.690323 0.000000 0.000000 0.000000 0.000000 0.000000 0.000000 14.629861 -0.722374 10.101671 -9.697291 -2.951319 5.363310 45.065267 -22.347669 34.804465 0.000000 0.000000 0.000000 14.629861 -0.722374 10.101671 1.393418 -22.425009 -11.692042 0.000000 0.000000 0.000000 -26.210188 -26.834442 -58.561926 0.000005 -6.963267 0.000005 0.000000 0.000000 0.000000 14.629861 -0.722374 10.101671 3.773755 8.199921 9.049997 0.000000 0.000000 0.000000 5.482795 46.140383 23.825834 0.000006 27.178873 -0.000003 0.000000 0.000000 0.000000 
3.510692 31.729469 -1.347372 0.000000 0.000000 0.000000 7.497265 -29.614454 -16.675379 -34.826455 -7.773227 24.774549 73.994738 3.781572 10.123278 -36.062391 33.792368 -13.917055 -0.313519 -0.000004 0.000009 0.000000 0.000000 0.000000 7.497265 -29.614454 -16.675379 -18.779451 7.314777 25.990518 -6.385582 0.610954 -2.557559 19.080651 10.030812 -1.576250 -4.006614 0.000036 -0.000002 0.000000 0.000000 0.000000 7.497265 -29.614454 -16.675379 18.580082 -7.075789 13.179421 14.290956 -0.963468 11.785260 0.000000 0.000000 0.000000 0.000000 0.000000 0.000000 14.529460 -0.738709 10.195980 -9.686887 -2.968233 5.296479 45.316403 -22.463833 34.831315 0.000000 0.000000 0.000000 14.529460 -0.738709 10.195980 1.400119 -22.413616 -11.649764 0.000000 0.000000 0.000000 -25.433861 -27.033896 -58.773081 -0.000013 -6.952678 0.000006 0.000000 0.000000 0.000000 14.529460 -0.738709 10.195980 3.958499 8.152930 8.319695 0.000000 0.000000 0.000000 4.906707 45.594463 24.900025 0.000011 27.749657 -0.000005 0.000000 0.000000 0.000000 
